<?xml version="1.0" standalone="no"?>
<!DOCTYPE svg PUBLIC "-//W3C//DTD SVG 20010904//EN"
 "http://www.w3.org/TR/2001/REC-SVG-20010904/DTD/svg10.dtd">
<svg version="1.0" xmlns="http://www.w3.org/2000/svg"
 width="308.000000pt" height="308.000000pt" viewBox="0 0 308.000000 308.000000"
 preserveAspectRatio="xMidYMid meet">
<metadata>
Created by potrace 1.14, written by Peter Selinger 2001-2017
</metadata>
<g transform="translate(0.000000,308.000000) scale(0.100000,-0.100000)"
fill="#000000" stroke="none">
<path d="M973 2885 c-50 -24 -109 -58 -129 -77 -21 -18 -63 -55 -94 -83 -30
-27 -71 -64 -90 -80 -19 -17 -64 -66 -100 -110 -35 -44 -69 -85 -75 -91 -5 -6
-23 -28 -40 -50 -16 -21 -98 -121 -181 -223 -157 -194 -214 -280 -245 -369
-19 -56 -18 -67 16 -122 12 -19 33 -56 47 -81 45 -80 53 -94 58 -99 3 -3 11
-16 18 -29 8 -13 23 -40 34 -59 11 -19 29 -43 41 -52 12 -10 156 -131 320
-270 l298 -251 99 -35 c76 -26 122 -35 192 -39 152 -8 159 -11 437 -234 249
-200 250 -200 403 -270 141 -63 175 -74 263 -86 17 -3 63 -9 102 -15 61 -10
92 -8 195 9 68 11 137 22 155 24 17 3 38 9 46 13 12 8 168 148 214 193 8 8 25
37 38 65 12 28 37 81 54 118 25 54 31 79 31 135 0 38 -7 92 -15 119 -9 27 -21
65 -27 84 -18 57 -127 222 -211 319 -63 74 -80 101 -92 148 -26 98 -27 156 -5
207 11 26 22 68 25 94 3 26 8 59 11 74 3 15 -4 59 -16 99 -22 72 -33 90 -347
574 -211 326 -226 346 -282 389 -85 65 -184 98 -301 100 -94 1 -96 0 -215 -53
-66 -29 -126 -58 -132 -63 -18 -15 -97 0 -126 23 -14 10 -28 19 -32 19 -4 0
-20 9 -36 20 -39 28 -135 60 -178 60 -21 -1 -74 -19 -128 -45z"/>
</g>
</svg>
